ClarityCity-Light.ufo
<glyph name="ampersand" format="1">
  <advance width="691"/>
  <unicode hex="0026"/>
  <outline>
    <contour>
      <point x="287" y="-12" type="curve" smooth="yes"/>
      <point x="411" y="-12"/>
      <point x="506" y="82"/>
      <point x="619" y="316" type="curve"/>
      <point x="586" y="331" type="line"/>
      <point x="479" y="112"/>
      <point x="394" y="24"/>
      <point x="286" y="24" type="curve" smooth="yes"/>
      <point x="188" y="24"/>
      <point x="105" y="97"/>
      <point x="105" y="184" type="curve" smooth="yes"/>
      <point x="105" y="282"/>
      <point x="208" y="328"/>
      <point x="285" y="359" type="curve" smooth="yes"/>
      <point x="394" y="403"/>
      <point x="480" y="443"/>
      <point x="480" y="536" type="curve" smooth="yes"/>
      <point x="480" y="622"/>
      <point x="407" y="695"/>
      <point x="324" y="695" type="curve" smooth="yes"/>
      <point x="239" y="695"/>
      <point x="168" y="620"/>
      <point x="168" y="535" type="curve" smooth="yes"/>
      <point x="168" y="486"/>
      <point x="191" y="443"/>
      <point x="256" y="361" type="curve" smooth="yes"/>
      <point x="328" y="271"/>
      <point x="419" y="170"/>
      <point x="595" y="-7" type="curve"/>
      <point x="631" y="10" type="line"/>
      <point x="500" y="142"/>
      <point x="369" y="280"/>
      <point x="286" y="381" type="curve" smooth="yes"/>
      <point x="225" y="455"/>
      <point x="204" y="493"/>
      <point x="204" y="534" type="curve" smooth="yes"/>
      <point x="204" y="601"/>
      <point x="258" y="659"/>
      <point x="323" y="659" type="curve" smooth="yes"/>
      <point x="389" y="659"/>
      <point x="444" y="600"/>
      <point x="444" y="537" type="curve" smooth="yes"/>
      <point x="444" y="465"/>
      <point x="373" y="434"/>
      <point x="257" y="387" type="curve" smooth="yes"/>
      <point x="193" y="361"/>
      <point x="69" y="309"/>
      <point x="69" y="186" type="curve" smooth="yes"/>
      <point x="69" y="75"/>
      <point x="169" y="-12"/>
    </contour>
  </outline>
</glyph>
<glyph name="parenleft" format="1">
  <advance width="294"/>
  <unicode hex="0028"/>
  <outline>
    <contour>
      <point x="251" y="-170" type="curve"/>
      <point x="276" y="-143" type="line"/>
      <point x="159" y="-24"/>
      <point x="90" y="128"/>
      <point x="90" y="265" type="curve" smooth="yes"/>
      <point x="90" y="402"/>
      <point x="159" y="554"/>
      <point x="276" y="674" type="curve"/>
      <point x="251" y="700" type="line"/>
      <point x="127" y="572"/>
      <point x="54" y="410"/>
      <point x="54" y="265" type="curve" smooth="yes"/>
      <point x="54" y="118"/>
      <point x="127" y="-44"/>
    </contour>
  </outline>
</glyph>
<glyph name="parenright" format="1">
  <advance width="294"/>
  <unicode hex="0029"/>
  <outline>
    <contour>
      <point x="43" y="-170" type="line"/>
      <point x="167" y="-44"/>
      <point x="240" y="118"/>
      <point x="240" y="265" type="curve" smooth="yes"/>
      <point x="240" y="410"/>
      <point x="167" y="572"/>
      <point x="43" y="700" type="curve"/>
      <point x="18" y="674" type="line"/>
      <point x="135" y="554"/>
      <point x="204" y="402"/>
      <point x="204" y="265" type="curve" smooth="yes"/>
      <point x="204" y="128"/>
      <point x="135" y="-24"/>
      <point x="18" y="-143" type="curve"/>
    </contour>
  </outline>
</glyph>
<glyph name="plus" format="1">
  <advance width="565"/>
  <unicode hex="002B"/>
  <outline>
    <contour>
      <point x="53" y="316" type="line"/>
      <point x="512" y="316" type="line"/>
      <point x="512" y="352" type="line"/>
      <point x="53" y="352" type="line"/>
    </contour>
    <contour>
      <point x="265" y="105" type="line"/>
      <point x="301" y="105" type="line"/>
      <point x="301" y="564" type="line"/>
      <point x="265" y="564" type="line"/>
    </contour>
  </outline>
</glyph>
<glyph name="comma" format="1">
  <advance width="311"/>
  <unicode hex="002C"/>
  <outline>
    <contour>
      <point x="137" y="-123" type="line"/>
      <point x="176" y="-72"/>
      <point x="195" y="-29"/>
      <point x="195" y="6" type="curve" smooth="yes"/>
      <point x="195" y="33"/>
      <point x="182" y="48"/>
      <point x="163" y="48" type="curve" smooth="yes"/>
      <point x="145" y="48"/>
      <point x="132" y="35"/>
      <point x="132" y="18" type="curve" smooth="yes"/>
      <point x="132" y="1"/>
      <point x="144" y="-12"/>
      <point x="163" y="-12" type="curve"/>
      <point x="156" y="-40"/>
      <point x="137" y="-74"/>
      <point x="111" y="-104" type="curve"/>
    </contour>
  </outline>
</glyph>
<glyph name="one" format="1">
  <advance width="334"/>
  <unicode hex="0031"/>
  <outline>
    <contour>
      <point x="177" y="0" type="line"/>
      <point x="213" y="0" type="line"/>
      <point x="213" y="687" type="line"/>
      <point x="184" y="687" type="line"/>
      <point x="2" y="572" type="line"/>
      <point x="21" y="542" type="line"/>
      <point x="177" y="640" type="line"/>
    </contour>
  </outline>
</glyph>
<glyph name="two" format="1">
  <advance width="544"/>
  <unicode hex="0032"/>
  <outline>
    <contour>
      <point x="28" y="0" type="line"/>
      <point x="492" y="0" type="line"/>
      <point x="492" y="36" type="line"/>
      <point x="78" y="36" type="line"/>
      <point x="318" y="241" type="line" smooth="yes"/>
      <point x="422" y="330"/>
      <point x="474" y="414"/>
      <point x="474" y="498" type="curve" smooth="yes"/>
      <point x="474" y="603"/>
      <point x="392" y="699"/>
      <point x="267" y="699" type="curve" smooth="yes"/>
      <point x="185" y="699"/>
      <point x="96" y="658"/>
      <point x="34" y="567" type="curve"/>
      <point x="62" y="545" type="line"/>
      <point x="118" y="624"/>
      <point x="195" y="665"/>
      <point x="269" y="665" type="curve" smooth="yes"/>
      <point x="374" y="665"/>
      <point x="438" y="581"/>
      <point x="438" y="497" type="curve" smooth="yes"/>
      <point x="438" y="429"/>
      <point x="395" y="354"/>
      <point x="295" y="268" type="curve" smooth="yes"/>
      <point x="28" y="39" type="line"/>
    </contour>
  </outline>
</glyph>
<glyph name="six" format="1">
  <advance width="595"/>
  <unicode hex="0036"/>
  <outline>
    <contour>
      <point x="311" y="-12" type="curve" smooth="yes"/>
      <point x="431" y="-12"/>
      <point x="532" y="91"/>
      <point x="532" y="214" type="curve" smooth="yes"/>
      <point x="532" y="331"/>
      <point x="435" y="429"/>
      <point x="320" y="429" type="curve" smooth="yes"/>
      <point x="201" y="429"/>
      <point x="101" y="351"/>
      <point x="101" y="258" type="curve"/>
      <point x="110" y="208" type="line"/>
      <point x="114" y="308"/>
      <point x="207" y="393"/>
      <point x="313" y="393" type="curve" smooth="yes"/>
      <point x="412" y="393"/>
      <point x="496" y="310"/>
      <point x="496" y="212" type="curve" smooth="yes"/>
      <point x="496" y="110"/>
      <point x="411" y="24"/>
      <point x="311" y="24" type="curve" smooth="yes"/>
      <point x="183" y="24"/>
      <point x="107" y="139"/>
      <point x="107" y="333" type="curve" smooth="yes"/>
      <point x="107" y="526"/>
      <point x="198" y="663"/>
      <point x="326" y="663" type="curve" smooth="yes"/>
      <point x="389" y="663"/>
      <point x="455" y="635"/>
      <point x="503" y="588" type="curve"/>
      <point x="523" y="617" type="line"/>
      <point x="469" y="669"/>
      <point x="397" y="699"/>
      <point x="328" y="699" type="curve" smooth="yes"/>
      <point x="178" y="699"/>
      <point x="72" y="547"/>
      <point x="72" y="333" type="curve" smooth="yes"/>
      <point x="72" y="116"/>
      <point x="161" y="-12"/>
    </contour>
  </outline>
</glyph>
<glyph name="colon" format="1">
  <advance width="312"/>
  <unicode hex="003A"/>
  <outline>
    <contour>
      <point x="157" y="437" type="curve" smooth="yes"/>
      <point x="173" y="437"/>
      <point x="186" y="451"/>
      <point x="186" y="468" type="curve" smooth="yes"/>
      <point x="186" y="483"/>
      <point x="173" y="497"/>
      <point x="157" y="497" type="curve" smooth="yes"/>
      <point x="139" y="497"/>
      <point x="126" y="483"/>
      <point x="126" y="468" type="curve" smooth="yes"/>
      <point x="126" y="451"/>
      <point x="139" y="437"/>
    </contour>
    <contour>
      <point x="157" y="-12" type="curve" smooth="yes"/>
      <point x="173" y="-12"/>
      <point x="186" y="2"/>
      <point x="186" y="19" type="curve" smooth="yes"/>
      <point x="186" y="34"/>
      <point x="173" y="48"/>
      <point x="157" y="48" type="curve" smooth="yes"/>
      <point x="139" y="48"/>
      <point x="126" y="34"/>
      <point x="126" y="19" type="curve" smooth="yes"/>
      <point x="126" y="2"/>
      <point x="139" y="-12"/>
    </contour>
  </outline>
</glyph>
<glyph name="greater" format="1">
  <advance width="591"/>
  <unicode hex="003E"/>
  <outline>
    <contour>
      <point x="82" y="102" type="line"/>
      <point x="537" y="322" type="line"/>
      <point x="537" y="366" type="line"/>
      <point x="82" y="586" type="line"/>
      <point x="82" y="542" type="line"/>
      <point x="490" y="344" type="line"/>
      <point x="82" y="146" type="line"/>
    </contour>
  </outline>
</glyph>
<glyph name="question" format="1">
  <advance width="480"/>
  <unicode hex="003F"/>
  <outline>
    <contour>
      <point x="199" y="193" type="line"/>
      <point x="235" y="193" type="line"/>
      <point x="235" y="326" type="line"/>
      <point x="352" y="346"/>
      <point x="435" y="423"/>
      <point x="435" y="514" type="curve" smooth="yes"/>
      <point x="435" y="614"/>
      <point x="348" y="699"/>
      <point x="245" y="699" type="curve" smooth="yes"/>
      <point x="156" y="699"/>
      <point x="82" y="661"/>
      <point x="20" y="584" type="curve"/>
      <point x="46" y="559" type="line"/>
      <point x="96" y="629"/>
      <point x="161" y="663"/>
      <point x="243" y="663" type="curve" smooth="yes"/>
      <point x="328" y="663"/>
      <point x="399" y="594"/>
      <point x="399" y="511" type="curve" smooth="yes"/>
      <point x="399" y="430"/>
      <point x="316" y="365"/>
      <point x="199" y="356" type="curve"/>
    </contour>
    <component base="period" xOffset="63"/>
  </outline>
</glyph>
<glyph name="A" format="1">
  <advance width="676"/>
  <unicode hex="0041"/>
  <outline>
    <contour>
      <point x="119" y="175" type="line"/>
      <point x="558" y="175" type="line"/>
      <point x="558" y="211" type="line"/>
      <point x="119" y="211" type="line"/>
    </contour>
    <component base="capital_V" xScale="-1" yScale="-1" xOffset="676" yOffset="687"/>
    <contour>
      <point x="661" y="0" type="move" name="bottom"/>
    </contour>
    <contour>
      <point x="338" y="686" type="move" name="top"/>
    </contour>
  </outline>
</glyph>
<glyph name="D" format="1">
  <advance width="773"/>
  <unicode hex="0044"/>
  <outline>
    <contour>
      <point x="126" y="0" type="line"/>
      <point x="361" y="0" type="line" smooth="yes"/>
      <point x="567" y="0"/>
      <point x="713" y="143"/>
      <point x="713" y="344" type="curve" smooth="yes"/>
      <point x="713" y="545"/>
      <point x="567" y="687"/>
      <point x="361" y="687" type="curve" smooth="yes"/>
      <point x="126" y="687" type="line"/>
    </contour>
    <contour>
      <point x="162" y="36" type="line"/>
      <point x="162" y="651" type="line"/>
      <point x="361" y="651" type="line" smooth="yes"/>
      <point x="546" y="651"/>
      <point x="677" y="524"/>
      <point x="677" y="344" type="curve" smooth="yes"/>
      <point x="677" y="164"/>
      <point x="546" y="36"/>
      <point x="361" y="36" type="curve" smooth="yes"/>
    </contour>
    <contour>
      <point x="361" y="687" type="move" name="top"/>
    </contour>
  </outline>
</glyph>
<glyph name="H" format="1">
  <advance width="771"/>
  <unicode hex="0048"/>
  <outline>
    <contour>
      <point x="126" y="0" type="line"/>
      <point x="162" y="0" type="line"/>
      <point x="162" y="343" type="line"/>
      <point x="161" y="332" type="line"/>
      <point x="609" y="332" type="line"/>
      <point x="609" y="343" type="line"/>
      <point x="609" y="0" type="line"/>
      <point x="645" y="0" type="line"/>
      <point x="645" y="687" type="line"/>
      <point x="609" y="687" type="line"/>
      <point x="609" y="357" type="line"/>
      <point x="610" y="368" type="line"/>
      <point x="161" y="368" type="line"/>
      <point x="162" y="357" type="line"/>
      <point x="162" y="687" type="line"/>
      <point x="126" y="687" type="line"/>
    </contour>
  </outline>
</glyph>
<glyph name="K" format="1">
  <advance width="642"/>
  <unicode hex="004B"/>
  <outline>
    <contour>
      <point x="126" y="0" type="line"/>
      <point x="162" y="0" type="line"/>
      <point x="162" y="205" type="line"/>
      <point x="294" y="349" type="line"/>
      <point x="580" y="0" type="line"/>
      <point x="626" y="0" type="line"/>
      <point x="319" y="376" type="line"/>
      <point x="604" y="687" type="line"/>
      <point x="556" y="687" type="line"/>
      <point x="162" y="257" type="line"/>
      <point x="162" y="687" type="line"/>
      <point x="126" y="687" type="line"/>
    </contour>
    <contour>
      <point x="376" y="0" type="move" name="bottom"/>
    </contour>
  </outline>
</glyph>
<glyph name="O" format="1">
  <advance width="819"/>
  <unicode hex="004F"/>
  <outline>
    <contour>
      <point x="410" y="-12" type="curve" smooth="yes"/>
      <point x="601" y="-12"/>
      <point x="761" y="151"/>
      <point x="761" y="344" type="curve" smooth="yes"/>
      <point x="761" y="537"/>
      <point x="601" y="699"/>
      <point x="410" y="699" type="curve" smooth="yes"/>
      <point x="219" y="699"/>
      <point x="58" y="537"/>
      <point x="58" y="344" type="curve" smooth="yes"/>
      <point x="58" y="151"/>
      <point x="219" y="-12"/>
    </contour>
    <contour>
      <point x="410" y="24" type="curve" smooth="yes"/>
      <point x="238" y="24"/>
      <point x="94" y="170"/>
      <point x="94" y="344" type="curve" smooth="yes"/>
      <point x="94" y="517"/>
      <point x="238" y="663"/>
      <point x="410" y="663" type="curve" smooth="yes"/>
      <point x="581" y="663"/>
      <point x="725" y="517"/>
      <point x="725" y="344" type="curve" smooth="yes"/>
      <point x="725" y="170"/>
      <point x="581" y="24"/>
    </contour>
    <contour>
      <point x="410" y="687" type="move" name="top"/>
    </contour>
  </outline>
</glyph>
<glyph name="S" format="1">
  <advance width="606"/>
  <unicode hex="0053"/>
  <outline>
    <contour>
      <point x="315" y="-11" type="curve" smooth="yes"/>
      <point x="451" y="-11"/>
      <point x="547" y="67"/>
      <point x="547" y="177" type="curve" smooth="yes"/>
      <point x="547" y="273"/>
      <point x="482" y="327"/>
      <point x="321" y="365" type="curve" smooth="yes"/>
      <point x="173" y="401"/>
      <point x="114" y="441"/>
      <point x="114" y="507" type="curve" smooth="yes"/>
      <point x="114" y="599"/>
      <point x="189" y="663"/>
      <point x="296" y="663" type="curve" smooth="yes"/>
      <point x="376" y="663"/>
      <point x="454" y="630"/>
      <point x="513" y="573" type="curve"/>
      <point x="535" y="601" type="line"/>
      <point x="468" y="663"/>
      <point x="382" y="699"/>
      <point x="298" y="699" type="curve" smooth="yes"/>
      <point x="169" y="699"/>
      <point x="78" y="619"/>
      <point x="78" y="504" type="curve" smooth="yes"/>
      <point x="78" y="418"/>
      <point x="142" y="369"/>
      <point x="303" y="332" type="curve" smooth="yes"/>
      <point x="452" y="297"/>
      <point x="511" y="252"/>
      <point x="511" y="174" type="curve" smooth="yes"/>
      <point x="511" y="87"/>
      <point x="430" y="25"/>
      <point x="316" y="25" type="curve" smooth="yes"/>
      <point x="222" y="25"/>
      <point x="129" y="63"/>
      <point x="66" y="126" type="curve"/>
      <point x="44" y="98" type="line"/>
      <point x="114" y="29"/>
      <point x="214" y="-11"/>
    </contour>
    <contour>
      <point x="309" y="0" type="move" name="bottom"/>
    </contour>
    <contour>
      <point x="309" y="687" type="move" name="top"/>
    </contour>
  </outline>
</glyph>
<glyph name="U" format="1">
  <advance width="742"/>
  <unicode hex="0055"/>
  <outline>
    <contour>
      <point x="371" y="-12" type="curve" smooth="yes"/>
      <point x="527" y="-12"/>
      <point x="637" y="103"/>
      <point x="637" y="265" type="curve" smooth="yes"/>
      <point x="637" y="687" type="line"/>
      <point x="601" y="687" type="line"/>
      <point x="601" y="265" type="line" smooth="yes"/>
      <point x="601" y="124"/>
      <point x="506" y="24"/>
      <point x="371" y="24" type="curve" smooth="yes"/>
      <point x="236" y="24"/>
      <point x="141" y="124"/>
      <point x="141" y="265" type="curve" smooth="yes"/>
      <point x="141" y="687" type="line"/>
      <point x="105" y="687" type="line"/>
      <point x="105" y="265" type="line" smooth="yes"/>
      <point x="105" y="103"/>
      <point x="215" y="-12"/>
    </contour>
    <contour>
      <point x="371" y="-12" type="move" name="bottom"/>
    </contour>
    <contour>
      <point x="371" y="687" type="move" name="top"/>
    </contour>
  </outline>
</glyph>
<glyph name="X" format="1">
  <advance width="624"/>
  <unicode hex="0058"/>
  <outline>
    <contour>
      <point x="551" y="0" type="line"/>
      <point x="26" y="687" type="line"/>
      <point x="72" y="687" type="line"/>
      <point x="597" y="0" type="line"/>
    </contour>
    <contour>
      <point x="26" y="0" type="line"/>
      <point x="552" y="687" type="line"/>
      <point x="598" y="687" type="line"/>
      <point x="72" y="0" type="line"/>
    </contour>
  </outline>
</glyph>
<glyph name="Z" format="1">
  <advance width="572"/>
  <unicode hex="005A"/>
  <outline>
    <contour>
      <point x="33" y="0" type="line"/>
      <point x="538" y="0" type="line"/>
      <point x="538" y="36" type="line"/>
      <point x="77" y="36" type="line"/>
      <point x="534" y="657" type="line"/>
      <point x="534" y="687" type="line"/>
      <point x="40" y="687" type="line"/>
      <point x="40" y="651" type="line"/>
      <point x="490" y="651" type="line"/>
      <point x="33" y="30" type="line"/>
    </contour>
    <contour>
      <point x="286" y="687" type="move" name="top"/>
    </contour>
  </outline>
</glyph>
<glyph name="asciicircum" format="1">
  <advance width="506"/>
  <unicode hex="005E"/>
  <outline>
    <contour>
      <point x="72" y="413" type="line"/>
      <point x="116" y="413" type="line"/>
      <point x="253" y="647" type="line"/>
      <point x="390" y="413" type="line"/>
      <point x="434" y="413" type="line"/>
      <point x="274" y="687" type="line"/>
      <point x="232" y="687" type="line"/>
    </contour>
  </outline>
</glyph>
<glyph name="underscore" format="1">
  <advance width="780"/>
  <unicode hex="005F"/>
  <outline>
    <contour>
      <point x="92" y="-127" type="line"/>
      <point x="688" y="-127" type="line"/>
      <point x="688" y="-91" type="line"/>
      <point x="92" y="-91" type="line"/>
    </contour>
  </outline>
</glyph>
<glyph name="grave" format="1">
  <advance width="244"/>
  <unicode hex="0060"/>
  <outline>
    <contour>
      <point x="160" y="576" type="line"/>
      <point x="208" y="576" type="line"/>
      <point x="83" y="718" type="line"/>
      <point x="42" y="709" type="line"/>
    </contour>
    <contour>
      <point x="184" y="517" type="move" name="_top"/>
    </contour>
    <contour>
      <point x="184" y="704" type="move" name="top"/>
    </contour>
  </outline>
</glyph>
<glyph name="a" format="1">
  <advance width="553"/>
  <unicode hex="0061"/>
  <outline>
    <contour>
      <point x="433" y="0" type="line"/>
      <point x="469" y="0" type="line"/>
      <point x="469" y="315" type="line" smooth="yes"/>
      <point x="469" y="440"/>
      <point x="394" y="529"/>
      <point x="270" y="529" type="curve" smooth="yes"/>
      <point x="216" y="529"/>
      <point x="149" y="512"/>
      <point x="92" y="479" type="curve"/>
      <point x="107" y="448" type="line"/>
      <point x="155" y="477"/>
      <point x="213" y="493"/>
      <point x="265" y="493" type="curve" smooth="yes"/>
      <point x="388" y="493"/>
      <point x="433" y="402"/>
      <point x="433" y="315" type="curve" smooth="yes"/>
    </contour>
    <contour>
      <point x="228" y="-12" type="curve" smooth="yes"/>
      <point x="317" y="-12"/>
      <point x="429" y="36"/>
      <point x="450" y="123" type="curve"/>
      <point x="433" y="162" type="line"/>
      <point x="413" y="69"/>
      <point x="311" y="24"/>
      <point x="232" y="24" type="curve" smooth="yes"/>
      <point x="146" y="24"/>
      <point x="78" y="78"/>
      <point x="78" y="155" type="curve" smooth="yes"/>
      <point x="78" y="233"/>
      <point x="149" y="289"/>
      <point x="254" y="289" type="curve" smooth="yes"/>
      <point x="319" y="289"/>
      <point x="391" y="268"/>
      <point x="446" y="248" type="curve"/>
      <point x="446" y="284" type="line"/>
      <point x="385" y="308"/>
      <point x="311" y="325"/>
      <point x="250" y="325" type="curve" smooth="yes"/>
      <point x="125" y="325"/>
      <point x="42" y="254"/>
      <point x="42" y="154" type="curve" smooth="yes"/>
      <point x="42" y="56"/>
      <point x="121" y="-12"/>
    </contour>
    <contour>
      <point x="469" y="0" type="move" name="bottom"/>
    </contour>
    <contour>
      <point x="270" y="517" type="move" name="top"/>
    </contour>
  </outline>
</glyph>
<glyph name="f" format="1">
  <advance width="290"/>
  <unicode hex="0066"/>
  <outline>
    <contour>
      <point x="118" y="0" type="line"/>
      <point x="154" y="0" type="line"/>
      <point x="154" y="588" type="line" smooth="yes"/>
      <point x="154" y="644"/>
      <point x="184" y="684"/>
      <point x="226" y="684" type="curve" smooth="yes"/>
      <point x="256" y="684"/>
      <point x="280" y="676"/>
      <point x="300" y="659" type="curve"/>
      <point x="320" y="687" type="line"/>
      <point x="292" y="709"/>
      <point x="260" y="720"/>
      <point x="224" y="720" type="curve" smooth="yes"/>
      <point x="162" y="720"/>
      <point x="118" y="665"/>
      <point x="118" y="588" type="curve" smooth="yes"/>
    </contour>
    <contour>
      <point x="27" y="481" type="line"/>
      <point x="299" y="481" type="line"/>
      <point x="299" y="517" type="line"/>
      <point x="27" y="517" type="line"/>
    </contour>
  </outline>
</glyph>
<glyph name="k" format="1">
  <advance width="518"/>
  <unicode hex="006B"/>
  <outline>
    <contour>
      <point x="101" y="0" type="line"/>
      <point x="137" y="0" type="line"/>
      <point x="137" y="134" type="line"/>
      <point x="255" y="255" type="line"/>
      <point x="454" y="0" type="line"/>
      <point x="500" y="0" type="line"/>
      <point x="280" y="280" type="line"/>
      <point x="512" y="517" type="line"/>
      <point x="462" y="517" type="line"/>
      <point x="137" y="186" type="line"/>
      <point x="137" y="699" type="line"/>
      <point x="101" y="699" type="line"/>
    </contour>
    <contour>
      <point x="281" y="0" type="move" name="bottom"/>
    </contour>
  </outline>
</glyph>
<glyph name="o" format="1">
  <advance width="620"/>
  <unicode hex="006F"/>
  <outline>
    <contour>
      <point x="310" y="-12" type="curve" smooth="yes"/>
      <point x="455" y="-12"/>
      <point x="577" y="112"/>
      <point x="577" y="259" type="curve" smooth="yes"/>
      <point x="577" y="406"/>
      <point x="455" y="529"/>
      <point x="310" y="529" type="curve" smooth="yes"/>
      <point x="165" y="529"/>
      <point x="42" y="406"/>
      <point x="42" y="259" type="curve" smooth="yes"/>
      <point x="42" y="112"/>
      <point x="165" y="-12"/>
    </contour>
    <contour>
      <point x="310" y="24" type="curve" smooth="yes"/>
      <point x="184" y="24"/>
      <point x="78" y="131"/>
      <point x="78" y="259" type="curve" smooth="yes"/>
      <point x="78" y="386"/>
      <point x="184" y="493"/>
      <point x="310" y="493" type="curve" smooth="yes"/>
      <point x="435" y="493"/>
      <point x="541" y="386"/>
      <point x="541" y="259" type="curve" smooth="yes"/>
      <point x="541" y="131"/>
      <point x="435" y="24"/>
    </contour>
    <contour>
      <point x="310" y="517" type="move" name="top"/>
    </contour>
  </outline>
</glyph>
<glyph name="z" format="1">
  <advance width="456"/>
  <unicode hex="007A"/>
  <outline>
    <contour>
      <point x="23" y="0" type="line"/>
      <point x="431" y="0" type="line"/>
      <point x="431" y="36" type="line"/>
      <point x="70" y="36" type="line"/>
      <point x="429" y="487" type="line"/>
      <point x="429" y="517" type="line"/>
      <point x="29" y="517" type="line"/>
      <point x="29" y="481" type="line"/>
      <point x="382" y="481" type="line"/>
      <point x="23" y="30" type="line"/>
    </contour>
    <contour>
      <point x="228" y="517" type="move" name="top"/>
    </contour>
  </outline>
</glyph>
<glyph name="braceright" format="1">
  <advance width="334"/>
  <unicode hex="007D"/>
  <outline>
    <contour>
      <point x="18" y="-166" type="line"/>
      <point x="151" y="-151"/>
      <point x="204" y="-103"/>
      <point x="204" y="3" type="curve" smooth="yes"/>
      <point x="204" y="144" type="line" smooth="yes"/>
      <point x="204" y="218"/>
      <point x="236" y="248"/>
      <point x="317" y="248" type="curve"/>
      <point x="317" y="284" type="line"/>
      <point x="236" y="284"/>
      <point x="204" y="314"/>
      <point x="204" y="388" type="curve" smooth="yes"/>
      <point x="204" y="528" type="line" smooth="yes"/>
      <point x="204" y="634"/>
      <point x="151" y="682"/>
      <point x="18" y="697" type="curve"/>
      <point x="14" y="662" type="line"/>
      <point x="125" y="650"/>
      <point x="169" y="610"/>
      <point x="169" y="524" type="curve" smooth="yes"/>
      <point x="168" y="380" type="line" smooth="yes"/>
      <point x="168" y="313"/>
      <point x="188" y="280"/>
      <point x="238" y="266" type="curve"/>
      <point x="188" y="251"/>
      <point x="168" y="218"/>
      <point x="168" y="151" type="curve" smooth="yes"/>
      <point x="169" y="8" type="line" smooth="yes"/>
      <point x="169" y="-79"/>
      <point x="125" y="-119"/>
      <point x="14" y="-131" type="curve"/>
    </contour>
  </outline>
</glyph>
<glyph name="sterling" format="1">
  <advance width="643"/>
  <unicode hex="00A3"/>
  <outline>
    <contour>
      <point x="109" y="0" type="line"/>
      <point x="577" y="0" type="line"/>
      <point x="577" y="36" type="line"/>
      <point x="180" y="36" type="line"/>
      <point x="191" y="24" type="line"/>
      <point x="191" y="463" type="line" smooth="yes"/>
      <point x="191" y="580"/>
      <point x="261" y="663"/>
      <point x="361" y="663" type="curve" smooth="yes"/>
      <point x="442" y="663"/>
      <point x="509" y="624"/>
      <point x="540" y="557" type="curve"/>
      <point x="565" y="579" type="line"/>
      <point x="529" y="654"/>
      <point x="454" y="699"/>
      <point x="361" y="699" type="curve" smooth="yes"/>
      <point x="240" y="699"/>
      <point x="155" y="601"/>
      <point x="155" y="463" type="curve" smooth="yes"/>
      <point x="155" y="36" type="line"/>
      <point x="109" y="18" type="line"/>
    </contour>
    <contour>
      <point x="109" y="277" type="line"/>
      <point x="404" y="277" type="line"/>
      <point x="404" y="313" type="line"/>
      <point x="109" y="313" type="line"/>
    </contour>
  </outline>
</glyph>
<glyph name="yen" format="1">
  <advance width="723"/>
  <unicode hex="00A5"/>
  <outline>
    <contour>
      <point x="135" y="131" type="line"/>
      <point x="591" y="131" type="line"/>
      <point x="591" y="167" type="line"/>
      <point x="135" y="167" type="line"/>
    </contour>
    <contour>
      <point x="135" y="278" type="line"/>
      <point x="591" y="278" type="line"/>
      <point x="591" y="314" type="line"/>
      <point x="135" y="314" type="line"/>
    </contour>
    <component base="Y" xOffset="60"/>
  </outline>
</glyph>
<glyph name="dieresis" format="1">
  <advance width="418"/>
  <unicode hex="00A8"/>
  <outline>
    <contour>
      <point x="113" y="613" type="curve" smooth="yes"/>
      <point x="129" y="613"/>
      <point x="143" y="627"/>
      <point x="143" y="643" type="curve" smooth="yes"/>
      <point x="143" y="659"/>
      <point x="129" y="673"/>
      <point x="113" y="673" type="curve" smooth="yes"/>
      <point x="96" y="673"/>
      <point x="83" y="659"/>
      <point x="83" y="643" type="curve" smooth="yes"/>
      <point x="83" y="627"/>
      <point x="96" y="613"/>
    </contour>
    <contour>
      <point x="305" y="613" type="curve" smooth="yes"/>
      <point x="321" y="613"/>
      <point x="335" y="627"/>
      <point x="335" y="643" type="curve" smooth="yes"/>
      <point x="335" y="659"/>
      <point x="321" y="673"/>
      <point x="305" y="673" type="curve" smooth="yes"/>
      <point x="288" y="673"/>
      <point x="275" y="659"/>
      <point x="275" y="643" type="curve" smooth="yes"/>
      <point x="275" y="627"/>
      <point x="288" y="613"/>
    </contour>
    <contour>
      <point x="209" y="517" type="move" name="_top"/>
    </contour>
    <contour>
      <point x="209" y="704" type="move" name="top"/>
    </contour>
  </outline>
</glyph>
<glyph name="copyright" format="1">
  <advance width="949"/>
  <unicode hex="00A9"/>
  <outline>
    <contour>
      <point x="475" y="-116" type="curve" smooth="yes"/>
      <point x="693" y="-116"/>
      <point x="871" y="61"/>
      <point x="871" y="280" type="curve" smooth="yes"/>
      <point x="871" y="498"/>
      <point x="693" y="675"/>
      <point x="475" y="675" type="curve" smooth="yes"/>
      <point x="256" y="675"/>
      <point x="78" y="498"/>
      <point x="78" y="280" type="curve" smooth="yes"/>
      <point x="78" y="61"/>
      <point x="256" y="-116"/>
    </contour>
    <contour>
      <point x="475" y="-80" type="curve" smooth="yes"/>
      <point x="276" y="-80"/>
      <point x="114" y="81"/>
      <point x="114" y="280" type="curve" smooth="yes"/>
      <point x="114" y="478"/>
      <point x="276" y="639"/>
      <point x="475" y="639" type="curve" smooth="yes"/>
      <point x="673" y="639"/>
      <point x="835" y="478"/>
      <point x="835" y="280" type="curve" smooth="yes"/>
      <point x="835" y="81"/>
      <point x="673" y="-80"/>
    </contour>
    <contour>
      <point x="475" y="9" type="curve" smooth="yes"/>
      <point x="543" y="9"/>
      <point x="606" y="38"/>
      <point x="652" y="85" type="curve"/>
      <point x="627" y="110" type="line"/>
      <point x="587" y="70"/>
      <point x="533" y="45"/>
      <point x="475" y="45" type="curve" smooth="yes"/>
      <point x="345" y="45"/>
      <point x="253" y="142"/>
      <point x="253" y="280" type="curve" smooth="yes"/>
      <point x="253" y="418"/>
      <point x="345" y="514"/>
      <point x="475" y="514" type="curve" smooth="yes"/>
      <point x="533" y="514"/>
      <point x="587" y="489"/>
      <point x="626" y="449" type="curve"/>
      <point x="652" y="474" type="line"/>
      <point x="606" y="521"/>
      <point x="543" y="550"/>
      <point x="475" y="550" type="curve" smooth="yes"/>
      <point x="324" y="550"/>
      <point x="217" y="438"/>
      <point x="217" y="280" type="curve" smooth="yes"/>
      <point x="217" y="121"/>
      <point x="324" y="9"/>
    </contour>
  </outline>
</glyph>
<glyph name="registered" format="1">
  <advance width="680"/>
  <unicode hex="00AE"/>
  <outline>
    <contour>
      <point x="340" y="184" type="curve" smooth="yes"/>
      <point x="475" y="184"/>
      <point x="586" y="295"/>
      <point x="586" y="430" type="curve" smooth="yes"/>
      <point x="586" y="565"/>
      <point x="475" y="675"/>
      <point x="340" y="675" type="curve" smooth="yes"/>
      <point x="204" y="675"/>
      <point x="93" y="565"/>
      <point x="93" y="430" type="curve" smooth="yes"/>
      <point x="93" y="295"/>
      <point x="204" y="184"/>
    </contour>
    <contour>
      <point x="340" y="220" type="curve" smooth="yes"/>
      <point x="224" y="220"/>
      <point x="129" y="314"/>
      <point x="129" y="430" type="curve" smooth="yes"/>
      <point x="129" y="545"/>
      <point x="224" y="639"/>
      <point x="340" y="639" type="curve" smooth="yes"/>
      <point x="456" y="639"/>
      <point x="550" y="545"/>
      <point x="550" y="430" type="curve" smooth="yes"/>
      <point x="550" y="314"/>
      <point x="456" y="220"/>
    </contour>
    <contour>
      <point x="415" y="280" type="line"/>
      <point x="454" y="280" type="line"/>
      <point x="372" y="398" type="line"/>
      <point x="333" y="398" type="line"/>
    </contour>
    <contour>
      <point x="270" y="421" type="line"/>
      <point x="270" y="548" type="line"/>
      <point x="352" y="548" type="line" smooth="yes"/>
      <point x="400" y="548"/>
      <point x="434" y="525"/>
      <point x="434" y="484" type="curve" smooth="yes"/>
      <point x="434" y="444"/>
      <point x="400" y="421"/>
      <point x="352" y="421" type="curve" smooth="yes"/>
    </contour>
    <contour>
      <point x="236" y="280" type="line"/>
      <point x="270" y="280" type="line"/>
      <point x="270" y="388" type="line"/>
      <point x="358" y="388" type="line" smooth="yes"/>
      <point x="420" y="388"/>
      <point x="468" y="428"/>
      <point x="468" y="484" type="curve" smooth="yes"/>
      <point x="468" y="541"/>
      <point x="420" y="580"/>
      <point x="358" y="580" type="curve" smooth="yes"/>
      <point x="236" y="580" type="line"/>
    </contour>
  </outline>
</glyph>
<glyph name="acute" format="1">
  <advance width="244"/>
  <unicode hex="00B4"/>
  <outline>
    <contour>
      <point x="36" y="576" type="line"/>
      <point x="84" y="576" type="line"/>
      <point x="202" y="709" type="line"/>
      <point x="161" y="718" type="line"/>
    </contour>
    <contour>
      <point x="60" y="517" type="move" name="_top"/>
    </contour>
    <contour>
      <point x="60" y="704" type="move" name="top"/>
    </contour>
  </outline>
</glyph>
<glyph name="paragraph" format="1">
  <advance width="635"/>
  <unicode hex="00B6"/>
  <outline>
    <contour>
      <point x="277" y="-50" type="line"/>
      <point x="313" y="-50" type="line"/>
      <point x="313" y="651" type="line"/>
      <point x="447" y="651" type="line"/>
      <point x="447" y="-50" type="line"/>
      <point x="483" y="-50" type="line"/>
      <point x="483" y="687" type="line"/>
      <point x="269" y="687" type="line"/>
      <point x="153" y="687"/>
      <point x="56" y="612"/>
      <point x="56" y="496" type="curve" smooth="yes"/>
      <point x="56" y="382"/>
      <point x="143" y="303"/>
      <point x="277" y="303" type="curve"/>
    </contour>
  </outline>
</glyph>
<glyph name="cedilla" format="1">
  <advance width="296"/>
  <unicode hex="00B8"/>
  <outline>
    <contour>
      <point x="138" y="-192" type="curve" smooth="yes"/>
      <point x="188" y="-192"/>
      <point x="230" y="-154"/>
      <point x="230" y="-109" type="curve" smooth="yes"/>
      <point x="230" y="-72"/>
      <point x="203" y="-45"/>
      <point x="164" y="-45" type="curve" smooth="yes"/>
      <point x="146" y="-45"/>
      <point x="123" y="-54"/>
      <point x="107" y="-67" type="curve"/>
      <point x="141" y="-67" type="line"/>
      <point x="174" y="11" type="line"/>
      <point x="135" y="11" type="line"/>
      <point x="102" y="-67" type="line"/>
      <point x="118" y="-84" type="line"/>
      <point x="126" y="-78"/>
      <point x="140" y="-73"/>
      <point x="152" y="-73" type="curve" smooth="yes"/>
      <point x="177" y="-73"/>
      <point x="194" y="-88"/>
      <point x="194" y="-109" type="curve" smooth="yes"/>
      <point x="194" y="-133"/>
      <point x="168" y="-156"/>
      <point x="138" y="-156" type="curve" smooth="yes"/>
      <point x="115" y="-156"/>
      <point x="91" y="-147"/>
      <point x="72" y="-131" type="curve"/>
      <point x="57" y="-164" type="line"/>
      <point x="81" y="-182"/>
      <point x="111" y="-192"/>
    </contour>
    <contour>
      <point x="151" y="0" type="move" name="_bottom"/>
    </contour>
  </outline>
</glyph>
<glyph name="Eth" format="1">
  <advance width="796"/>
  <unicode hex="00D0"/>
  <outline>
    <contour>
      <point x="33" y="332" type="line"/>
      <point x="381" y="332" type="line"/>
      <point x="382" y="368" type="line"/>
      <point x="33" y="368" type="line"/>
    </contour>
    <component base="D" xOffset="23"/>
  </outline>
</glyph>
<glyph name="multiply" format="1">
  <advance width="533"/>
  <unicode hex="00D7"/>
  <outline>
    <contour>
      <point x="117" y="159" type="line"/>
      <point x="442" y="484" type="line"/>
      <point x="416" y="509" type="line"/>
      <point x="92" y="185" type="line"/>
    </contour>
    <contour>
      <point x="416" y="159" type="line"/>
      <point x="441" y="185" type="line"/>
      <point x="117" y="509" type="line"/>
      <point x="91" y="484" type="line"/>
    </contour>
  </outline>
</glyph>
<glyph name="oslash" format="1">
  <advance width="646"/>
  <unicode hex="00F8"/>
  <outline>
    <contour>
      <point x="85" y="0" type="line"/>
      <point x="133" y="0" type="line"/>
      <point x="574" y="517" type="line"/>
      <point x="526" y="517" type="line"/>
    </contour>
    <component base="o" xOffset="12"/>
  </outline>
</glyph>
<glyph name="idotless" format="1">
  <advance width="236"/>
  <unicode hex="0131"/>
  <outline>
    <contour>
      <point x="100" y="0" type="line"/>
      <point x="136" y="0" type="line"/>
      <point x="136" y="517" type="line"/>
      <point x="100" y="517" type="line"/>
    </contour>
    <contour>
      <point x="136" y="0" type="move" name="bottom"/>
    </contour>
    <contour>
      <point x="100" y="259" type="move" name="loop_left"/>
    </contour>
    <contour>
      <point x="136" y="289" type="move" name="r_shoulder"/>
    </contour>
    <contour>
      <point x="136" y="330" type="move" name="shoulder"/>
    </contour>
    <contour>
      <point x="118" y="517" type="move" name="top"/>
    </contour>
  </outline>
</glyph>
<glyph name="Lslash" format="1">
  <advance width="590"/>
  <unicode hex="0141"/>
  <outline>
    <contour>
      <point x="24" y="252" type="line"/>
      <point x="323" y="406" type="line"/>
      <point x="323" y="447" type="line"/>
      <point x="24" y="293" type="line"/>
    </contour>
    <component base="L" xOffset="30"/>
  </outline>
</glyph>
<glyph name="lslash" format="1">
  <advance width="272"/>
  <unicode hex="0142"/>
  <outline>
    <contour>
      <point x="31" y="249" type="line"/>
      <point x="226" y="349" type="line"/>
      <point x="226" y="390" type="line"/>
      <point x="31" y="290" type="line"/>
    </contour>
    <component base="l" xOffset="21"/>
  </outline>
</glyph>
<glyph name="OE" format="1">
  <advance width="994"/>
  <unicode hex="0152"/>
  <outline>
    <contour>
      <point x="56" y="344" type="curve" smooth="yes"/>
      <point x="56" y="151"/>
      <point x="217" y="0"/>
      <point x="408" y="0" type="curve" smooth="yes"/>
      <point x="939" y="0" type="line"/>
      <point x="939" y="36" type="line"/>
      <point x="524" y="36" type="line"/>
      <point x="524" y="332" type="line"/>
      <point x="908" y="332" type="line"/>
      <point x="908" y="368" type="line"/>
      <point x="524" y="368" type="line"/>
      <point x="524" y="651" type="line"/>
      <point x="939" y="651" type="line"/>
      <point x="939" y="687" type="line"/>
      <point x="408" y="687" type="line" smooth="yes"/>
      <point x="217" y="687"/>
      <point x="56" y="537"/>
    </contour>
    <contour>
      <point x="92" y="344" type="curve" smooth="yes"/>
      <point x="92" y="517"/>
      <point x="236" y="651"/>
      <point x="408" y="651" type="curve" smooth="yes"/>
      <point x="488" y="651" type="line"/>
      <point x="488" y="36" type="line"/>
      <point x="408" y="36" type="line" smooth="yes"/>
      <point x="236" y="36"/>
      <point x="92" y="170"/>
    </contour>
  </outline>
</glyph>
<glyph name="circumflex" format="1">
  <advance width="347"/>
  <unicode hex="02C6"/>
  <outline>
    <contour>
      <point x="45" y="576" type="line"/>
      <point x="89" y="576" type="line"/>
      <point x="173" y="682" type="line"/>
      <point x="259" y="576" type="line"/>
      <point x="303" y="576" type="line"/>
      <point x="195" y="713" type="line"/>
      <point x="151" y="713" type="line"/>
    </contour>
    <contour>
      <point x="173" y="517" type="move" name="_top"/>
    </contour>
    <contour>
      <point x="173" y="704" type="move" name="top"/>
    </contour>
  </outline>
</glyph>
<glyph name="caron" format="1">
  <advance width="349"/>
  <unicode hex="02C7"/>
  <outline>
    <contour>
      <point x="152" y="576" type="line"/>
      <point x="196" y="576" type="line"/>
      <point x="304" y="713" type="line"/>
      <point x="260" y="713" type="line"/>
      <point x="174" y="607" type="line"/>
      <point x="90" y="713" type="line"/>
      <point x="46" y="713" type="line"/>
    </contour>
    <contour>
      <point x="174" y="517" type="move" name="_top"/>
    </contour>
    <contour>
      <point x="174" y="704" type="move" name="top"/>
    </contour>
  </outline>
</glyph>
<glyph name="breve" format="1">
  <advance width="417"/>
  <unicode hex="02D8"/>
  <outline>
    <contour>
      <point x="207" y="589" type="curve" smooth="yes"/>
      <point x="260" y="589"/>
      <point x="313" y="609"/>
      <point x="353" y="649" type="curve"/>
      <point x="327" y="675" type="line"/>
      <point x="295" y="643"/>
      <point x="251" y="626"/>
      <point x="207" y="626" type="curve" smooth="yes"/>
      <point x="163" y="626"/>
      <point x="119" y="643"/>
      <point x="87" y="675" type="curve"/>
      <point x="61" y="649" type="line"/>
      <point x="102" y="609"/>
      <point x="154" y="589"/>
    </contour>
    <contour>
      <point x="207" y="517" type="move" name="_top"/>
    </contour>
    <contour>
      <point x="207" y="704" type="move" name="top"/>
    </contour>
  </outline>
</glyph>
<glyph name="dotaccentcomb" format="1">
  <advance width="226"/>
  <unicode hex="0307"/>
  <outline>
    <contour>
      <point x="113" y="631" type="curve" smooth="yes"/>
      <point x="129" y="631"/>
      <point x="143" y="644"/>
      <point x="143" y="661" type="curve" smooth="yes"/>
      <point x="143" y="677"/>
      <point x="129" y="691"/>
      <point x="113" y="691" type="curve" smooth="yes"/>
      <point x="96" y="691"/>
      <point x="83" y="677"/>
      <point x="83" y="661" type="curve" smooth="yes"/>
      <point x="83" y="644"/>
      <point x="96" y="631"/>
    </contour>
    <contour>
      <point x="113" y="517" type="move" name="_top"/>
    </contour>
  </outline>
</glyph>
<glyph name="commaaccentcomb" format="1">
  <advance width="230"/>
  <unicode hex="0326"/>
  <outline>
    <contour>
      <point x="97" y="-268" type="line"/>
      <point x="136" y="-217"/>
      <point x="155" y="-174"/>
      <point x="155" y="-139" type="curve" smooth="yes"/>
      <point x="155" y="-112"/>
      <point x="142" y="-97"/>
      <point x="123" y="-97" type="curve" smooth="yes"/>
      <point x="105" y="-97"/>
      <point x="92" y="-110"/>
      <point x="92" y="-127" type="curve" smooth="yes"/>
      <point x="92" y="-144"/>
      <point x="104" y="-157"/>
      <point x="123" y="-157" type="curve"/>
      <point x="116" y="-185"/>
      <point x="97" y="-219"/>
      <point x="71" y="-249" type="curve"/>
    </contour>
    <contour>
      <point x="123" y="0" type="move" name="_bottom"/>
    </contour>
    <contour>
      <point x="123" y="517" type="move" name="_top"/>
    </contour>
  </outline>
</glyph>
<glyph name="bullet" format="1">
  <advance width="424"/>
  <unicode hex="2022"/>
  <outline>
    <contour>
      <point x="212" y="196" type="curve" smooth="yes"/>
      <point x="267" y="196"/>
      <point x="313" y="242"/>
      <point x="313" y="298" type="curve" smooth="yes"/>
      <point x="313" y="353"/>
      <point x="267" y="399"/>
      <point x="212" y="399" type="curve" smooth="yes"/>
      <point x="156" y="399"/>
      <point x="110" y="353"/>
      <point x="110" y="298" type="curve" smooth="yes"/>
      <point x="110" y="242"/>
      <point x="156" y="196"/>
    </contour>
  </outline>
</glyph>
<glyph name="perthousand" format="1">
  <advance width="1176"/>
  <unicode hex="2030"/>
  <outline>
    <contour>
      <point x="148" y="0" type="line"/>
      <point x="196" y="0" type="line"/>
      <point x="666" y="687" type="line"/>
      <point x="618" y="687" type="line"/>
    </contour>
    <contour>
      <point x="596" y="-10" type="curve" smooth="yes"/>
      <point x="682" y="-10"/>
      <point x="743" y="62"/>
      <point x="743" y="163" type="curve" smooth="yes"/>
      <point x="743" y="263"/>
      <point x="683" y="334"/>
      <point x="597" y="334" type="curve" smooth="yes"/>
      <point x="511" y="334"/>
      <point x="451" y="263"/>
      <point x="451" y="162" type="curve" smooth="yes"/>
      <point x="451" y="61"/>
      <point x="511" y="-10"/>
    </contour>
    <contour>
      <point x="597" y="26" type="curve" smooth="yes"/>
      <point x="533" y="26"/>
      <point x="487" y="83"/>
      <point x="487" y="163" type="curve" smooth="yes"/>
      <point x="487" y="242"/>
      <point x="532" y="298"/>
      <point x="596" y="298" type="curve" smooth="yes"/>
      <point x="661" y="298"/>
      <point x="707" y="242"/>
      <point x="707" y="162" type="curve" smooth="yes"/>
      <point x="707" y="82"/>
      <point x="661" y="26"/>
    </contour>
    <contour>
      <point x="214" y="349" type="curve" smooth="yes"/>
      <point x="300" y="349"/>
      <point x="361" y="420"/>
      <point x="361" y="521" type="curve" smooth="yes"/>
      <point x="361" y="622"/>
      <point x="301" y="693"/>
      <point x="215" y="693" type="curve" smooth="yes"/>
      <point x="129" y="693"/>
      <point x="69" y="621"/>
      <point x="69" y="519" type="curve" smooth="yes"/>
      <point x="69" y="419"/>
      <point x="129" y="349"/>
    </contour>
    <contour>
      <point x="215" y="385" type="curve" smooth="yes"/>
      <point x="151" y="385"/>
      <point x="105" y="441"/>
      <point x="105" y="520" type="curve" smooth="yes"/>
      <point x="105" y="600"/>
      <point x="150" y="657"/>
      <point x="214" y="657" type="curve" smooth="yes"/>
      <point x="279" y="657"/>
      <point x="325" y="600"/>
      <point x="325" y="520" type="curve" smooth="yes"/>
      <point x="325" y="441"/>
      <point x="279" y="385"/>
    </contour>
    <contour>
      <point x="968" y="-10" type="curve" smooth="yes"/>
      <point x="1054" y="-10"/>
      <point x="1115" y="62"/>
      <point x="1115" y="163" type="curve" smooth="yes"/>
      <point x="1115" y="263"/>
      <point x="1055" y="334"/>
      <point x="969" y="334" type="curve" smooth="yes"/>
      <point x="883" y="334"/>
      <point x="823" y="263"/>
      <point x="823" y="162" type="curve" smooth="yes"/>
      <point x="823" y="61"/>
      <point x="883" y="-10"/>
    </contour>
    <contour>
      <point x="969" y="26" type="curve" smooth="yes"/>
      <point x="905" y="26"/>
      <point x="859" y="83"/>
      <point x="859" y="163" type="curve" smooth="yes"/>
      <point x="859" y="242"/>
      <point x="904" y="298"/>
      <point x="968" y="298" type="curve" smooth="yes"/>
      <point x="1033" y="298"/>
      <point x="1079" y="242"/>
      <point x="1079" y="162" type="curve" smooth="yes"/>
      <point x="1079" y="82"/>
      <point x="1033" y="26"/>
    </contour>
  </outline>
</glyph>
<glyph name="guilsinglleft" format="1">
  <advance width="283"/>
  <unicode hex="2039"/>
  <outline>
    <contour>
      <point x="198" y="55" type="line"/>
      <point x="232" y="60" type="line"/>
      <point x="70" y="249" type="line"/>
      <point x="232" y="437" type="line"/>
      <point x="198" y="442" type="line"/>
      <point x="30" y="249" type="line"/>
    </contour>
  </outline>
</glyph>
<glyph name="guilsinglright" format="1">
  <advance width="283"/>
  <unicode hex="203A"/>
  <outline>
    <contour>
      <point x="85" y="55" type="line"/>
      <point x="253" y="249" type="line"/>
      <point x="85" y="442" type="line"/>
      <point x="51" y="437" type="line"/>
      <point x="213" y="249" type="line"/>
      <point x="51" y="60" type="line"/>
    </contour>
  </outline>
</glyph>
<glyph name="capital_V" format="1">
  <advance width="676"/>
  <outline>
    <contour>
      <point x="318" y="0" type="line"/>
      <point x="358" y="0" type="line"/>
      <point x="661" y="687" type="line"/>
      <point x="621" y="687" type="line"/>
    </contour>
    <contour>
      <point x="318" y="0" type="line"/>
      <point x="358" y="0" type="line"/>
      <point x="55" y="687" type="line"/>
      <point x="15" y="687" type="line"/>
    </contour>
  </outline>
</glyph>
<glyph name="descender" format="1">
  <advance width="238"/>
  <outline>
    <contour>
      <point x="101" y="-172" type="line"/>
      <point x="137" y="-172" type="line"/>
      <point x="137" y="517" type="line"/>
      <point x="101" y="517" type="line"/>
    </contour>
    <contour>
      <point x="101" y="259" type="move" name="loop_left"/>
    </contour>
    <contour>
      <point x="137" y="259" type="move" name="loop_right"/>
    </contour>
  </outline>
</glyph>
<glyph name="lowercase_m_shoulder" format="1">
  <advance width="440"/>
  <outline>
    <contour>
      <point x="319" y="0" type="line"/>
      <point x="355" y="0" type="line"/>
      <point x="355" y="339" type="line" smooth="yes"/>
      <point x="355" y="450"/>
      <point x="283" y="529"/>
      <point x="180" y="529" type="curve" smooth="yes"/>
      <point x="81" y="529"/>
      <point x="11" y="472"/>
      <point x="11" y="391" type="curve"/>
      <point x="20" y="339" type="line"/>
      <point x="20" y="429"/>
      <point x="84" y="493"/>
      <point x="175" y="493" type="curve" smooth="yes"/>
      <point x="259" y="493"/>
      <point x="319" y="427"/>
      <point x="319" y="334" type="curve" smooth="yes"/>
    </contour>
    <contour>
      <point x="20" y="339" type="move" name="_shoulder"/>
    </contour>
    <contour>
      <point x="355" y="339" type="move" name="shoulder"/>
    </contour>
  </outline>
</glyph>
<glyph name="lowercase_r_shoulder" format="1">
  <advance width="290"/>
  <outline>
    <contour>
      <point x="71" y="289" type="line"/>
      <point x="71" y="408"/>
      <point x="154" y="493"/>
      <point x="271" y="493" type="curve"/>
      <point x="271" y="529" type="line"/>
      <point x="159" y="529"/>
      <point x="65" y="451"/>
      <point x="65" y="359" type="curve"/>
    </contour>
    <contour>
      <point x="71" y="289" type="move" name="_r_shoulder"/>
    </contour>
  </outline>
</glyph>
<glyph name="thorn_stem" format="1">
  <advance width="240"/>
  <outline>
    <contour>
      <point x="102" y="-172" type="line"/>
      <point x="138" y="-172" type="line"/>
      <point x="138" y="699" type="line"/>
      <point x="102" y="699" type="line"/>
    </contour>
    <contour>
      <point x="138" y="259" type="move" name="loop_right"/>
    </contour>
  </outline>
</glyph>
